<svg width="64" height="64" viewBox="0 0 64 64" fill="none" xmlns="http://www.w3.org/2000/svg">
<g clip-path="url(#clip0_2_12)">
<path fill-rule="evenodd" clip-rule="evenodd" d="M32 64C14.326 64 0 49.674 0 32C0 14.326 14.326 0 32 0C49.674 0 64 14.326 64 32C64 49.674 49.674 64 32 64ZM19.504 22C14.558 22.348 10.322 26.456 10 31.242V32.812C10.34 37.608 14.634 41.668 19.574 42H21.18C25.1 41.656 28.396 39.17 30.772 36.276C30.192 35.426 29.606 34.578 29.004 33.744C27.476 36 25.484 38.128 22.8 39.064C20.384 39.94 17.58 39.378 15.57 37.872C12.886 35.972 11.91 32.286 13.11 29.314C14.474 25.706 19.05 23.582 22.796 24.94C25.826 26.042 27.696 28.77 29.528 31.196C31.656 33.94 33.416 37.022 36.158 39.268C38.046 40.872 40.47 41.8 42.964 42H44.456C48.508 41.64 52.214 38.932 53.486 35.166C52.56 35.1594 51.6339 35.1634 50.708 35.178C48.892 38.886 43.722 40.68 40.026 38.486C34.912 35.452 32.704 29.698 28.686 25.622C26.75 23.642 24.138 22.268 21.312 22H19.504ZM42.864 22C38.916 22.366 35.644 24.906 33.298 27.842C33.848 28.656 34.416 29.46 34.988 30.256C36.474 28.106 38.402 26.094 40.962 25.176C44.174 23.956 48.192 25.106 50.092 27.916C50.872 28.992 51.172 30.294 51.4 31.566C48.152 31.586 44.906 31.566 41.654 31.574C41.658 32.294 41.658 33.008 41.654 33.728C45.768 33.724 49.886 33.748 54 33.71V31.25C53.59 26.456 49.35 22.314 44.364 22H42.864Z" fill="black"/>
</g>
<defs>
<clipPath id="clip0_2_12">
<rect width="64" height="64" fill="white"/>
</clipPath>
</defs>
</svg>
