<svg width="53" height="26" viewBox="0 0 53 26" fill="none" xmlns="http://www.w3.org/2000/svg">
<path d="M10.704 20.28C9.21067 20.28 7.82 20.0373 6.532 19.552C5.26267 19.048 4.152 18.348 3.2 17.452C2.26667 16.5373 1.53867 15.464 1.016 14.232C0.493333 13 0.232 11.656 0.232 10.2C0.232 8.744 0.493333 7.4 1.016 6.168C1.53867 4.936 2.276 3.872 3.228 2.976C4.18 2.06133 5.29067 1.36133 6.56 0.875999C7.82933 0.371999 9.22 0.119999 10.732 0.119999C12.3373 0.119999 13.8027 0.399999 15.128 0.96C16.4533 1.50133 17.5733 2.31333 18.488 3.396L16.136 5.608C15.4267 4.84267 14.6333 4.27333 13.756 3.9C12.8787 3.508 11.9267 3.312 10.9 3.312C9.87333 3.312 8.93067 3.48 8.072 3.816C7.232 4.152 6.49467 4.628 5.86 5.244C5.244 5.86 4.75867 6.588 4.404 7.428C4.068 8.268 3.9 9.192 3.9 10.2C3.9 11.208 4.068 12.132 4.404 12.972C4.75867 13.812 5.244 14.54 5.86 15.156C6.49467 15.772 7.232 16.248 8.072 16.584C8.93067 16.92 9.87333 17.088 10.9 17.088C11.9267 17.088 12.8787 16.9013 13.756 16.528C14.6333 16.136 15.4267 15.548 16.136 14.764L18.488 17.004C17.5733 18.068 16.4533 18.88 15.128 19.44C13.8027 20 12.328 20.28 10.704 20.28ZM22.8718 25.628C22.1438 25.628 21.4158 25.5067 20.6878 25.264C19.9598 25.0213 19.3531 24.6853 18.8677 24.256L20.2677 21.68C20.6224 21.9973 21.0238 22.2493 21.4718 22.436C21.9198 22.6227 22.3771 22.716 22.8438 22.716C23.4784 22.716 23.9918 22.5573 24.3838 22.24C24.7758 21.9227 25.1398 21.3907 25.4758 20.644L26.3438 18.684L26.6238 18.264L32.2798 5.048H35.6398L28.6398 21.204C28.1731 22.324 27.6504 23.2107 27.0718 23.864C26.5118 24.5173 25.8771 24.9747 25.1678 25.236C24.4771 25.4973 23.7118 25.628 22.8718 25.628ZM25.9518 20.532L19.2037 5.048H22.8438L28.3318 17.956L25.9518 20.532ZM44.1025 20.28C42.5719 20.28 41.1065 20.0653 39.7065 19.636C38.3065 19.188 37.1959 18.6187 36.3745 17.928L37.6345 15.1C38.4185 15.716 39.3892 16.2293 40.5465 16.64C41.7039 17.0507 42.8892 17.256 44.1025 17.256C45.1292 17.256 45.9599 17.144 46.5945 16.92C47.2292 16.696 47.6959 16.3973 47.9945 16.024C48.2932 15.632 48.4425 15.1933 48.4425 14.708C48.4425 14.1107 48.2279 13.6347 47.7985 13.28C47.3692 12.9067 46.8092 12.6173 46.1185 12.412C45.4465 12.188 44.6905 11.9827 43.8505 11.796C43.0292 11.6093 42.1985 11.3947 41.3585 11.152C40.5372 10.8907 39.7812 10.564 39.0905 10.172C38.4185 9.76133 37.8679 9.22 37.4385 8.548C37.0092 7.876 36.7945 7.01733 36.7945 5.972C36.7945 4.908 37.0745 3.93733 37.6345 3.06C38.2132 2.164 39.0812 1.45467 40.2385 0.931998C41.4145 0.390665 42.8985 0.119999 44.6905 0.119999C45.8665 0.119999 47.0332 0.269333 48.1905 0.568C49.3479 0.866666 50.3559 1.296 51.2145 1.856L50.0665 4.684C49.1892 4.16133 48.2839 3.77867 47.3505 3.536C46.4172 3.27467 45.5212 3.144 44.6625 3.144C43.6545 3.144 42.8332 3.26533 42.1985 3.508C41.5825 3.75067 41.1252 4.068 40.8265 4.46C40.5465 4.852 40.4065 5.3 40.4065 5.804C40.4065 6.40133 40.6119 6.88667 41.0225 7.26C41.4519 7.61467 42.0025 7.89467 42.6745 8.1C43.3652 8.30533 44.1305 8.51067 44.9705 8.716C45.8105 8.90267 46.6412 9.11733 47.4625 9.36C48.3025 9.60267 49.0585 9.92 49.7305 10.312C50.4212 10.704 50.9719 11.236 51.3825 11.908C51.8119 12.58 52.0265 13.4293 52.0265 14.456C52.0265 15.5013 51.7372 16.472 51.1585 17.368C50.5985 18.2453 49.7305 18.9547 48.5545 19.496C47.3785 20.0187 45.8945 20.28 44.1025 20.28Z" fill="black"/>
</svg>
