<svg width="60" height="60" viewBox="0 0 60 60" fill="none" xmlns="http://www.w3.org/2000/svg">
<g filter="url(#filter0_d_67_4)">
<path d="M29.7404 51.4808C43.9564 51.4808 55.4808 39.9564 55.4808 25.7404C55.4808 11.5243 43.9564 0 29.7404 0C15.5243 0 4 11.5243 4 25.7404C4 39.9564 15.5243 51.4808 29.7404 51.4808Z" fill="#1B76FF"/>
<g clip-path="url(#clip0_67_4)">
<path d="M39.7778 21.8182H37.3333V18.75C37.3333 16.9598 36.6251 15.2429 35.3644 13.977C34.1038 12.7112 32.394 12 30.6111 12H29.3889C27.606 12 25.8962 12.7112 24.6356 13.977C23.3749 15.2429 22.6667 16.9598 22.6667 18.75V21.8182H20.2222C19.8981 21.8182 19.5872 21.9475 19.358 22.1776C19.1288 22.4078 19 22.72 19 23.0455V37.7727C19 38.0982 19.1288 38.4104 19.358 38.6405C19.5872 38.8707 19.8981 39 20.2222 39H39.7778C40.1019 39 40.4128 38.8707 40.642 38.6405C40.8712 38.4104 41 38.0982 41 37.7727V23.0455C41 22.72 40.8712 22.4078 40.642 22.1776C40.4128 21.9475 40.1019 21.8182 39.7778 21.8182ZM25.1111 18.75C25.1111 17.6108 25.5618 16.5182 26.364 15.7127C27.1663 14.9071 28.2544 14.4545 29.3889 14.4545H30.6111C31.7456 14.4545 32.8337 14.9071 33.636 15.7127C34.4382 16.5182 34.8889 17.6108 34.8889 18.75V21.8182H25.1111V18.75ZM24.5 32.25C24.1374 32.25 23.7829 32.142 23.4815 31.9398C23.18 31.7375 22.945 31.45 22.8062 31.1136C22.6675 30.7772 22.6312 30.407 22.7019 30.0499C22.7726 29.6928 22.9472 29.3648 23.2036 29.1074C23.46 28.8499 23.7867 28.6746 24.1423 28.6036C24.498 28.5325 24.8666 28.569 25.2016 28.7083C25.5366 28.8476 25.8229 29.0836 26.0244 29.3863C26.2258 29.6891 26.3333 30.045 26.3333 30.4091C26.3419 30.6532 26.3003 30.8964 26.2112 31.1236C26.1221 31.3508 25.9873 31.5572 25.8154 31.7299C25.6434 31.9026 25.4379 32.0379 25.2116 32.1273C24.9853 32.2168 24.7431 32.2586 24.5 32.25ZM30 32.25C29.6374 32.25 29.2829 32.142 28.9815 31.9398C28.68 31.7375 28.445 31.45 28.3062 31.1136C28.1675 30.7772 28.1312 30.407 28.2019 30.0499C28.2726 29.6928 28.4472 29.3648 28.7036 29.1074C28.96 28.8499 29.2867 28.6746 29.6423 28.6036C29.998 28.5325 30.3666 28.569 30.7016 28.7083C31.0366 28.8476 31.3229 29.0836 31.5244 29.3863C31.7258 29.6891 31.8333 30.045 31.8333 30.4091C31.8419 30.6532 31.8003 30.8964 31.7112 31.1236C31.6221 31.3508 31.4873 31.5572 31.3154 31.7299C31.1434 31.9026 30.9379 32.0379 30.7116 32.1273C30.4853 32.2168 30.2431 32.2586 30 32.25ZM35.5 32.25C35.1374 32.25 34.7829 32.142 34.4815 31.9398C34.18 31.7375 33.945 31.45 33.8062 31.1136C33.6675 30.7772 33.6312 30.407 33.7019 30.0499C33.7726 29.6928 33.9472 29.3648 34.2036 29.1074C34.46 28.8499 34.7867 28.6746 35.1423 28.6036C35.498 28.5325 35.8666 28.569 36.2016 28.7083C36.5366 28.8476 36.8229 29.0836 37.0244 29.3863C37.2258 29.6891 37.3333 30.045 37.3333 30.4091C37.3419 30.6532 37.3003 30.8964 37.2112 31.1236C37.1221 31.3508 36.9873 31.5572 36.8154 31.7299C36.6434 31.9026 36.4379 32.0379 36.2116 32.1273C35.9853 32.2168 35.7431 32.2586 35.5 32.25Z" fill="white"/>
</g>
</g>
<defs>
<filter id="filter0_d_67_4" x="0" y="0" width="59.4808" height="59.4808" filterUnits="userSpaceOnUse" color-interpolation-filters="sRGB">
<feFlood flood-opacity="0" result="BackgroundImageFix"/>
<feColorMatrix in="SourceAlpha" type="matrix" values="0 0 0 0 0 0 0 0 0 0 0 0 0 0 0 0 0 0 127 0" result="hardAlpha"/>
<feOffset dy="4"/>
<feGaussianBlur stdDeviation="2"/>
<feComposite in2="hardAlpha" operator="out"/>
<feColorMatrix type="matrix" values="0 0 0 0 0 0 0 0 0 0 0 0 0 0 0 0 0 0 0.25 0"/>
<feBlend mode="normal" in2="BackgroundImageFix" result="effect1_dropShadow_67_4"/>
<feBlend mode="normal" in="SourceGraphic" in2="effect1_dropShadow_67_4" result="shape"/>
</filter>
<clipPath id="clip0_67_4">
<rect width="41" height="41" fill="white" transform="translate(9 5)"/>
</clipPath>
</defs>
</svg>
