<svg width="52" height="52" viewBox="0 0 52 52" fill="none" xmlns="http://www.w3.org/2000/svg">
<path d="M25.7404 51.5373C39.9564 51.5373 51.4808 40.013 51.4808 25.7969C51.4808 11.5809 39.9564 0.0565186 25.7404 0.0565186C11.5243 0.0565186 0 11.5809 0 25.7969C0 40.013 11.5243 51.5373 25.7404 51.5373Z" fill="#1B76FF"/>
<g clip-path="url(#clip0_67_3)">
<path d="M34.7333 31.7333H32.6667V29.6666H34.7333V31.7333Z" fill="white"/>
<path d="M28.5333 31.7333H30.6V29.6666H28.5333V31.7333Z" fill="white"/>
<path d="M38.8667 31.7333H36.8V29.6666H38.8667V31.7333Z" fill="white"/>
<path fill-rule="evenodd" clip-rule="evenodd" d="M18.2 21.4V16.2333C18.2 12.2385 21.4385 9 25.4333 9C29.4282 9 32.6667 12.2385 32.6667 16.2333V21.4H35.7667C37.4787 21.4 38.8667 22.7879 38.8667 24.5V25.6367C41.2249 26.1154 43 28.2004 43 30.7C43 33.1996 41.2249 35.2847 38.8667 35.7633V36.9C38.8667 38.612 37.4787 40 35.7667 40H15.1C13.3879 40 12 38.612 12 36.9V24.5C12 22.7879 13.3879 21.4 15.1 21.4H18.2ZM20.2667 16.2333C20.2667 13.3799 22.5799 11.0667 25.4333 11.0667C28.2868 11.0667 30.6 13.3799 30.6 16.2333V21.4H20.2667V16.2333ZM29.5667 27.6C27.8546 27.6 26.4667 28.9879 26.4667 30.7C26.4667 32.412 27.8546 33.8 29.5667 33.8H37.8333C39.5454 33.8 40.9333 32.412 40.9333 30.7C40.9333 28.9879 39.5454 27.6 37.8333 27.6H29.5667Z" fill="white"/>
</g>
<defs>
<clipPath id="clip0_67_3">
<rect width="31" height="31" fill="white" transform="translate(12 9)"/>
</clipPath>
</defs>
</svg>
