<svg width="52" height="52" viewBox="0 0 52 52" fill="none" xmlns="http://www.w3.org/2000/svg">
<path d="M25.797 51.5373C40.013 51.5373 51.5374 40.013 51.5374 25.7969C51.5374 11.5809 40.013 0.0565186 25.797 0.0565186C11.5809 0.0565186 0.0565796 11.5809 0.0565796 25.7969C0.0565796 40.013 11.5809 51.5373 25.797 51.5373Z" fill="#1B76FF"/>
<g clip-path="url(#clip0_67_5)">
<path d="M31.9375 9.375C30.2686 9.37457 28.6228 9.76509 27.132 10.5153C25.6412 11.2654 24.3468 12.3544 23.3527 13.6949C22.3585 15.0353 21.6922 16.5901 21.4071 18.2344C21.122 19.8788 21.226 21.5671 21.7109 23.164L9.375 35.5V42.625H16.5L28.8359 30.289C30.3059 30.7354 31.8549 30.8595 33.3773 30.653C34.8997 30.4466 36.3596 29.9143 37.6577 29.0925C38.9557 28.2707 40.0613 27.1788 40.8992 25.891C41.737 24.6033 42.2874 23.15 42.5128 21.6304C42.7381 20.1107 42.6332 18.5602 42.2052 17.0848C41.7771 15.6093 41.036 14.2434 40.0323 13.0803C39.0287 11.9172 37.786 10.9841 36.3891 10.3447C34.9922 9.70525 33.4738 9.37451 31.9375 9.375ZM31.9375 28.375C31.1198 28.3745 30.3067 28.2536 29.5243 28.0161L28.1624 27.6031L27.1564 28.6092L23.3788 32.3869L21.7417 30.75L20.0625 32.4292L21.6997 34.0663L19.8165 35.9497L18.1792 34.3125L16.5 35.9917L18.1372 37.6288L15.5163 40.25H11.75V36.4837L23.3902 24.8435L24.3963 23.8372L23.9839 22.4755C23.4763 20.8023 23.5093 19.0116 24.0781 17.3583C24.6469 15.7049 25.7226 14.273 27.1522 13.2662C28.5818 12.2594 30.2924 11.7291 32.0408 11.7506C33.7891 11.7722 35.4862 12.3445 36.8905 13.3861C38.2949 14.4278 39.335 15.8857 39.863 17.5526C40.3909 19.2195 40.3798 21.0104 39.8312 22.6706C39.2826 24.3308 38.2244 25.7758 36.8072 26.7999C35.39 27.824 33.686 28.3752 31.9375 28.375Z" fill="white"/>
<path d="M33.125 21.25C34.4367 21.25 35.5 20.1867 35.5 18.875C35.5 17.5633 34.4367 16.5 33.125 16.5C31.8133 16.5 30.75 17.5633 30.75 18.875C30.75 20.1867 31.8133 21.25 33.125 21.25Z" fill="white"/>
</g>
<defs>
<clipPath id="clip0_67_5">
<rect width="38" height="38" fill="white" transform="translate(7 7)"/>
</clipPath>
</defs>
</svg>
